# xmcd
#
# Track frame offsets:
#	150
#	18815
#	39149
#	57566
#	75248
#	95085
#	112563
#	129387
#	148918
#	167475
#	181535
#	196220
#	214327
#	232775
#	247594
#	263615
#	284479
#	300164
#
# Disc length: 4293 seconds
#
# Revision: 0
# Processed by: cddbd v1.5.2PL0 Copyright (c) Steve Scherf et al.
# Submitted via: EasyCDDAExtractor 10.0.3.1
#
DISCID=d310c312
DTITLE=Various Artist - 首選皇牌精典金曲系列之絕版情歌合唱CD1
DYEAR=2006
DGENRE=Duet
TTITLE0=高明駿/陳艾湄 - 誰說我不在乎
TTITLE1=蔡幸娟/彭偉華 - 兩顆心四行淚
TTITLE2=高明駿/陳艾湄 - 那種心跳的感覺
TTITLE3=陳艾湄/黃舒駿 - 你的聲音
TTITLE4=蔡幸娟/彭偉華 - 有些話不敢當面告訴你
TTITLE5=張清芳/范怡文 - 這些日子以來
TTITLE6=翁詩韻/董仕強 - 看見你牽別人的手
TTITLE7=陳亮吟/王文清 - 讓我忘記我
TTITLE8=王識賢/江蕙 - 我想你不是真心愛我
TTITLE9=陳亮吟/葉佳修 - 神話
TTITLE10=陳亮吟/孫建平 - 你是甜蜜的功課
TTITLE11=江淑娜/吳大衛 - 愛你那麼深
TTITLE12=張清芳/范怡文 - 愛情到底是甚麼
TTITLE13=王識賢/江蕙 - 寂寞的腳印
TTITLE14=洪瞹宏/林淑娟 - 別再讓我醉
TTITLE15=劉家昌/尤雅 - 在雨中
TTITLE16=楊麗珍/孫建平 - 萍聚
TTITLE17=明珠姐妹 - 新桃花江
EXTD=
EXTT0=
EXTT1=
EXTT2=
EXTT3=
EXTT4=
EXTT5=
EXTT6=
EXTT7=
EXTT8=
EXTT9=
EXTT10=
EXTT11=
EXTT12=
EXTT13=
EXTT14=
EXTT15=
EXTT16=
EXTT17=
PLAYORDER=
